<svg width="38" height="38" viewBox="0 0 38 38" fill="none" xmlns="http://www.w3.org/2000/svg">
<path d="M3.05005 34.2C3.05 34.6142 3.38575 34.95 3.79996 34.95C4.21418 34.9501 4.55 34.6143 4.55005 34.2001L3.80005 34.2L3.05005 34.2ZM3.80069 28.4994L4.55069 28.4995L3.80069 28.4994ZM19.95 23.55C20.3643 23.55 20.7 23.2143 20.7 22.8C20.7 22.3858 20.3643 22.05 19.95 22.05V22.8V23.55ZM34.2 25.45C34.6143 25.45 34.95 25.1143 34.95 24.7C34.95 24.2858 34.6143 23.95 34.2 23.95V24.7V25.45ZM25.65 23.95C25.2358 23.95 24.9 24.2858 24.9 24.7C24.9 25.1143 25.2358 25.45 25.65 25.45V24.7V23.95ZM29.175 28.9748C29.175 29.389 29.5108 29.7248 29.925 29.7248C30.3393 29.7248 30.675 29.389 30.675 28.9748H29.925H29.175ZM30.675 20.4248C30.675 20.0106 30.3393 19.6748 29.925 19.6748C29.5108 19.6748 29.175 20.0106 29.175 20.4248H29.925H30.675ZM27.9168 3.14582C27.5554 2.94329 27.0983 3.07201 26.8958 3.43333C26.6933 3.79465 26.822 4.25175 27.1833 4.45428L27.55 3.80005L27.9168 3.14582ZM27.1833 14.5458C26.822 14.7484 26.6933 15.2054 26.8958 15.5668C27.0983 15.9281 27.5554 16.0568 27.9168 15.8543L27.55 15.2L27.1833 14.5458ZM22.8 9.50005H22.05C22.05 12.2339 19.8339 14.45 17.1 14.45V15.2V15.95C20.6623 15.95 23.55 13.0623 23.55 9.50005H22.8ZM17.1 15.2V14.45C14.3662 14.45 12.15 12.2339 12.15 9.50005H11.4H10.65C10.65 13.0623 13.5378 15.95 17.1 15.95V15.2ZM11.4 9.50005H12.15C12.15 6.76624 14.3662 4.55005 17.1 4.55005V3.80005V3.05005C13.5378 3.05005 10.65 5.93781 10.65 9.50005H11.4ZM17.1 3.80005V4.55005C19.8339 4.55005 22.05 6.76624 22.05 9.50005H22.8H23.55C23.55 5.93781 20.6623 3.05005 17.1 3.05005V3.80005ZM3.80005 34.2L4.55005 34.2001L4.55069 28.4995L3.80069 28.4994L3.05069 28.4993L3.05005 34.2L3.80005 34.2ZM9.50069 22.8V22.05C5.93874 22.05 3.05109 24.9374 3.05069 28.4993L3.80069 28.4994L4.55069 28.4995C4.551 25.7659 6.7671 23.55 9.50069 23.55V22.8ZM9.50069 22.8V23.55H19.95V22.8V22.05H9.50069V22.8ZM34.2 24.7V23.95H29.925V24.7V25.45H34.2V24.7ZM29.925 24.7V23.95H25.65V24.7V25.45H29.925V24.7ZM29.925 28.9748H30.675V24.7H29.925H29.175V28.9748H29.925ZM29.925 24.7H30.675V20.4248H29.925H29.175V24.7H29.925ZM27.55 3.80005L27.1833 4.45428C29.3251 5.65481 30.6 7.51002 30.6 9.50005H31.35H32.1C32.1 6.81885 30.3865 4.53017 27.9168 3.14582L27.55 3.80005ZM31.35 9.50005H30.6C30.6 11.4901 29.3251 13.3453 27.1833 14.5458L27.55 15.2L27.9168 15.8543C30.3865 14.4699 32.1 12.1812 32.1 9.50005H31.35Z" fill="#3B82F6"/>
</svg>
