<svg width="38" height="38" viewBox="0 0 38 38" fill="none" xmlns="http://www.w3.org/2000/svg">
<path d="M7.9164 17.4167C7.9164 10.4211 13.587 4.75 20.582 4.75C27.577 4.75 33.2476 10.4211 33.2476 17.4167C33.2476 19.2375 32.8634 20.9687 32.1717 22.5334L33.25 30.0821L26.7814 28.4649C24.9489 29.4955 22.8341 30.0833 20.582 30.0833M4.7515 25.3333C4.7515 26.4714 4.99159 27.5533 5.42387 28.5313L4.75 33.2493L8.79249 32.2385C9.93768 32.8826 11.2593 33.25 12.6667 33.25C17.0382 33.25 20.582 29.7056 20.582 25.3333C20.582 20.9611 17.0382 17.4167 12.6667 17.4167C8.29528 17.4167 4.7515 20.9611 4.7515 25.3333Z" stroke="#A02CD6" stroke-width="1.5" stroke-linecap="round" stroke-linejoin="round"/>
</svg>
