<svg width="27" height="27" viewBox="0 0 27 27" fill="none" xmlns="http://www.w3.org/2000/svg">
<path d="M18.5823 11.8127H23.0999C23.7627 11.8127 24.2999 12.35 24.2999 13.0127V20.023V20.6127C24.2999 21.7173 23.4045 22.6127 22.2999 22.6127H5.39995M2.69995 5.5877V20.2502C2.69995 21.555 3.75768 22.6127 5.06245 22.6127C6.36722 22.6127 7.42495 21.555 7.42495 20.2502V13.0127C7.42495 12.35 7.96221 11.8127 8.62495 11.8127H21.8999V8.97593C21.8999 8.31319 21.3627 7.77593 20.6999 7.77593H12.7941L10.9604 4.93666C10.7393 4.59442 10.3597 4.3877 9.95233 4.3877H3.89995C3.23721 4.3877 2.69995 4.92495 2.69995 5.5877Z" stroke="#FF5C01" stroke-width="1.5" stroke-linecap="round" stroke-linejoin="round"/>
</svg>
