<svg width="16" height="16" viewBox="0 0 16 16" fill="none" xmlns="http://www.w3.org/2000/svg">
<g clip-path="url(#clip0_1350_8478)">
<path d="M7.99996 1C6.91996 1 5.88996 1.215 4.94996 1.604L4.94196 1.607L4.93796 1.609C2.99504 2.41958 1.44756 3.95988 0.627958 5.899L0.611958 5.929C0.606625 5.94367 0.602625 5.958 0.599958 5.972C-0.188161 7.90441 -0.189955 10.0683 0.594958 12.002C0.598958 12.022 0.604625 12.0413 0.611958 12.06C0.621292 12.0793 0.631292 12.0977 0.641958 12.115C0.730958 12.323 0.823958 12.528 0.928958 12.726L0.984958 12.811C1.064 12.9057 1.17528 12.9679 1.2974 12.9855C1.41951 13.0032 1.54383 12.975 1.64645 12.9065C1.74906 12.838 1.82274 12.734 1.85329 12.6145C1.88384 12.4949 1.86912 12.3683 1.81196 12.259L1.74896 12.129L3.10896 11.564C3.17256 11.5411 3.23085 11.5055 3.28031 11.4594C3.32976 11.4133 3.36935 11.3576 3.39669 11.2958C3.42402 11.2339 3.43853 11.1672 3.43933 11.0996C3.44013 11.032 3.42722 10.9649 3.40136 10.9024C3.37551 10.84 3.33725 10.7834 3.2889 10.7361C3.24056 10.6889 3.18313 10.6519 3.12009 10.6274C3.05705 10.603 2.98971 10.5916 2.92213 10.5939C2.85456 10.5963 2.78817 10.6123 2.72696 10.641L1.35696 11.207C0.878806 9.77235 0.879507 8.22122 1.35896 6.787L2.72896 7.353C2.85097 7.40098 2.98695 7.39913 3.1076 7.34782C3.22826 7.29652 3.32393 7.19988 3.37402 7.07872C3.42412 6.95756 3.42461 6.82157 3.37541 6.70004C3.3262 6.57852 3.23123 6.48118 3.11096 6.429L1.75096 5.864C2.42742 4.51485 3.52181 3.42046 4.87096 2.744L5.43596 4.114C5.48814 4.23428 5.58548 4.32925 5.707 4.37845C5.82853 4.42765 5.96452 4.42716 6.08568 4.37707C6.20684 4.32698 6.30348 4.2313 6.35478 4.11064C6.40608 3.98999 6.40794 3.85401 6.35996 3.732L5.79496 2.362C7.22963 1.88464 8.78029 1.88464 10.215 2.362L9.64696 3.732C9.5963 3.85453 9.5964 3.99216 9.64722 4.11463C9.69804 4.23709 9.79543 4.33434 9.91796 4.385C9.97863 4.41008 10.0436 4.42297 10.1093 4.42292C10.1749 4.42288 10.2399 4.40991 10.3006 4.38474C10.423 4.33392 10.5203 4.23653 10.571 4.114L11.139 2.744C12.4908 3.42482 13.5881 4.52211 14.269 5.874L12.899 6.444C12.836 6.46744 12.7783 6.50334 12.7295 6.54957C12.6807 6.59579 12.6417 6.65138 12.6149 6.71302C12.588 6.77465 12.5739 6.84107 12.5733 6.90829C12.5727 6.97551 12.5857 7.04216 12.6115 7.10426C12.6372 7.16635 12.6753 7.22261 12.7233 7.26967C12.7713 7.31673 12.8283 7.35363 12.8909 7.37816C12.9535 7.40268 13.0203 7.41434 13.0875 7.41242C13.1547 7.4105 13.2209 7.39506 13.282 7.367L14.652 6.798C14.9682 7.7513 15.0757 8.7615 14.967 9.76L15.897 10.333C15.9703 9.90233 16.007 9.459 16.007 9.003C16.007 4.583 12.427 1.003 8.00696 1.003L7.99996 1Z" fill="white"/>
<path d="M8.95008 7.23007C8.71798 7.10732 8.46394 7.03158 8.20252 7.00718C7.9411 6.98277 7.67743 7.01018 7.42662 7.08784C7.17581 7.1655 6.94279 7.29188 6.7409 7.45974C6.53901 7.6276 6.37222 7.83364 6.25009 8.06607C6.12734 8.29817 6.0516 8.55221 6.0272 8.81363C6.00279 9.07505 6.0302 9.33872 6.10786 9.58953C6.18552 9.84034 6.3119 10.0734 6.47976 10.2753C6.64762 10.4771 6.85366 10.6439 7.08609 10.7661C7.78309 11.1331 8.59609 11.0471 9.19609 10.6141L14.4461 12.9541C14.5622 13.0073 14.6943 13.014 14.8153 12.9728C14.9362 12.9317 15.0368 12.8458 15.0964 12.7328C15.1561 12.6198 15.1702 12.4883 15.1359 12.3653C15.1016 12.2422 15.0215 12.1369 14.9121 12.0711L10.0121 9.05107C10.0229 8.67766 9.92945 8.30863 9.74222 7.98539C9.55498 7.66214 9.28137 7.39747 8.95208 7.22107L8.95008 7.23007Z" fill="white"/>
</g>
<defs>
<clipPath id="clip0_1350_8478">
<rect width="16" height="16" fill="white"/>
</clipPath>
</defs>
</svg>
