<svg width="38" height="38" viewBox="0 0 38 38" fill="none" xmlns="http://www.w3.org/2000/svg">
<path d="M3.80005 29.65C3.38584 29.65 3.05005 29.9858 3.05005 30.4C3.05005 30.8143 3.38584 31.15 3.80005 31.15V30.4V29.65ZM34.2 31.15C34.6143 31.15 34.95 30.8143 34.95 30.4C34.95 29.9858 34.6143 29.65 34.2 29.65V30.4V31.15ZM34.2 9.50005H33.45C33.45 9.99554 33.1849 10.5574 32.508 11.1576C31.8319 11.757 30.8109 12.331 29.4847 12.8283C26.838 13.8208 23.1313 14.45 19 14.45V15.2V15.95C23.2635 15.95 27.1568 15.3033 30.0114 14.2328C31.4359 13.6986 32.6409 13.0444 33.5031 12.2799C34.3645 11.5162 34.95 10.5786 34.95 9.50005H34.2ZM19 15.2V14.45C14.8688 14.45 11.1621 13.8208 8.51537 12.8283C7.18924 12.331 6.16816 11.757 5.49209 11.1576C4.81515 10.5574 4.55005 9.99554 4.55005 9.50005H3.80005H3.05005C3.05005 10.5786 3.6356 11.5162 4.49699 12.2799C5.35924 13.0444 6.56415 13.6986 7.98868 14.2328C10.8433 15.3033 14.7366 15.95 19 15.95V15.2ZM3.80005 9.50005H4.55005C4.55005 9.00455 4.81515 8.44272 5.49209 7.84255C6.16816 7.24314 7.18924 6.66908 8.51537 6.17179C11.1621 5.17927 14.8688 4.55005 19 4.55005V3.80005V3.05005C14.7366 3.05005 10.8433 3.69682 7.98868 4.76729C6.56415 5.30149 5.35924 5.95568 4.49699 6.72016C3.6356 7.48386 3.05005 8.42153 3.05005 9.50005H3.80005ZM19 3.80005V4.55005C23.1313 4.55005 26.838 5.17927 29.4847 6.17179C30.8109 6.66908 31.8319 7.24314 32.508 7.84255C33.1849 8.44272 33.45 9.00455 33.45 9.50005H34.2H34.95C34.95 8.42153 34.3645 7.48386 33.5031 6.72016C32.6409 5.95568 31.4359 5.30149 30.0114 4.76729C27.1568 3.69682 23.2635 3.05005 19 3.05005V3.80005ZM34.2 17.1H33.45C33.45 17.5955 33.1849 18.1574 32.508 18.7575C31.8319 19.357 30.8109 19.931 29.4847 20.4283C26.838 21.4208 23.1313 22.05 19 22.05V22.8V23.55C23.2635 23.55 27.1568 22.9033 30.0114 21.8328C31.4359 21.2986 32.6409 20.6444 33.5031 19.8799C34.3645 19.1162 34.95 18.1786 34.95 17.1H34.2ZM19 22.8V22.05C14.8688 22.05 11.1621 21.4208 8.51537 20.4283C7.18924 19.931 6.16816 19.357 5.49209 18.7576C4.81515 18.1574 4.55005 17.5955 4.55005 17.1H3.80005H3.05005C3.05005 18.1786 3.6356 19.1162 4.49699 19.8799C5.35924 20.6444 6.56415 21.2986 7.98868 21.8328C10.8433 22.9033 14.7366 23.55 19 23.55V22.8ZM3.80005 17.1H4.55005V9.50005H3.80005H3.05005V17.1H3.80005ZM34.2 17.1H34.95V9.50005H34.2H33.45V17.1H34.2ZM22.8 30.4H22.05C22.05 32.0845 20.6845 33.45 19 33.45V34.2V34.95C21.5129 34.95 23.55 32.9129 23.55 30.4H22.8ZM19 34.2V33.45C17.3156 33.45 15.95 32.0845 15.95 30.4H15.2H14.45C14.45 32.9129 16.4872 34.95 19 34.95V34.2ZM15.2 30.4H15.95C15.95 28.7156 17.3156 27.35 19 27.35V26.6V25.85C16.4872 25.85 14.45 27.8871 14.45 30.4H15.2ZM19 26.6V27.35C20.6845 27.35 22.05 28.7156 22.05 30.4H22.8H23.55C23.55 27.8871 21.5129 25.85 19 25.85V26.6ZM3.80005 30.4V31.15H15.2V30.4V29.65H3.80005V30.4ZM22.8 30.4V31.15H34.2V30.4V29.65H22.8V30.4ZM19 22.8H18.25V26.6H19H19.75V22.8H19Z" fill="#10B981"/>
</svg>
