<svg width="21" height="21" viewBox="0 0 21 21" fill="none" xmlns="http://www.w3.org/2000/svg">
<path d="M4.37485 9.625C4.37485 5.75901 7.5086 2.625 11.3743 2.625C15.2399 2.625 18.3737 5.75901 18.3737 9.625C18.3737 10.6313 18.1614 11.5879 17.7791 12.4527L18.375 16.6243L14.8003 15.7306C13.7876 16.3001 12.6188 16.625 11.3743 16.625M2.62583 14C2.62583 14.6289 2.75851 15.2268 2.9974 15.7673L2.625 18.3746L4.85901 17.816C5.49188 18.172 6.22225 18.375 7.00005 18.375C9.41586 18.375 11.3743 16.4162 11.3743 14C11.3743 11.5838 9.41586 9.625 7.00005 9.625C4.58423 9.625 2.62583 11.5838 2.62583 14Z" stroke="#9D5BBD" stroke-width="1.5" stroke-linecap="round" stroke-linejoin="round"/>
</svg>
