<svg width="38" height="38" viewBox="0 0 38 38" fill="none" xmlns="http://www.w3.org/2000/svg">
<path d="M30.0833 4.75C31.8322 4.75 33.25 6.14834 33.25 7.87328L33.25 13.2049C33.25 14.9298 31.8322 16.3282 30.0833 16.3282H25.3333C23.5844 16.3282 22.1667 14.9298 22.1667 13.2049L22.1667 7.87328C22.1667 6.14834 23.5844 4.75 25.3333 4.75L30.0833 4.75Z" stroke="#FF5C01" stroke-width="1.5" stroke-linecap="round" stroke-linejoin="round"/>
<path d="M7.91666 4.75C6.16776 4.75 4.75 6.14834 4.75 7.87328L4.75001 13.2049C4.75001 14.9298 6.16778 16.3282 7.91668 16.3282H12.6667C14.4156 16.3282 15.8333 14.9298 15.8333 13.2049L15.8333 7.87328C15.8333 6.14834 14.4156 4.75 12.6667 4.75L7.91666 4.75Z" stroke="#FF5C01" stroke-width="1.5" stroke-linecap="round" stroke-linejoin="round"/>
<path d="M30.0833 21.6719C31.8322 21.6719 33.25 23.0702 33.25 24.7952V30.1267C33.25 31.8517 31.8322 33.25 30.0833 33.25H25.3333C23.5844 33.25 22.1667 31.8517 22.1667 30.1267L22.1667 24.7952C22.1667 23.0702 23.5844 21.6719 25.3333 21.6719H30.0833Z" stroke="#FF5C01" stroke-width="1.5" stroke-linecap="round" stroke-linejoin="round"/>
<path d="M7.91668 21.6719C6.16778 21.6719 4.75001 23.0702 4.75001 24.7952L4.75002 30.1267C4.75002 31.8517 6.16778 33.25 7.91668 33.25H12.6667C14.4156 33.25 15.8333 31.8517 15.8333 30.1267L15.8333 24.7952C15.8333 23.0702 14.4156 21.6719 12.6667 21.6719H7.91668Z" stroke="#FF5C01" stroke-width="1.5" stroke-linecap="round" stroke-linejoin="round"/>
</svg>
