<svg width="38" height="38" viewBox="0 0 38 38" fill="none" xmlns="http://www.w3.org/2000/svg">
<path d="M34.2 10.45C34.2 13.598 27.3948 16.15 19 16.15C10.6053 16.15 3.80005 13.598 3.80005 10.45M34.2 10.45C34.2 7.30198 27.3948 4.75 19 4.75C10.6053 4.75 3.80005 7.30198 3.80005 10.45M34.2 10.45V27.55C34.2 30.698 27.3948 33.25 19 33.25C10.6053 33.25 3.80005 30.698 3.80005 27.55V10.45M34.2 19C34.2 22.148 27.3948 24.7 19 24.7C10.6053 24.7 3.80005 22.148 3.80005 19" stroke="#F59E0B" stroke-width="1.5"/>
</svg>
