<svg width="21" height="17" viewBox="0 0 21 17" fill="none" xmlns="http://www.w3.org/2000/svg">
<g clip-path="url(#clip0_1350_8854)">
<path d="M2.97012 17.0075H18.0301C19.5701 17.0075 20.5301 15.3375 19.7601 14.0075L12.2301 0.9975C11.4601 -0.3325 9.54012 -0.3325 8.77012 0.9975L1.24012 14.0075C0.470121 15.3375 1.43012 17.0075 2.97012 17.0075ZM10.5001 10.0075C9.95012 10.0075 9.50012 9.5575 9.50012 9.0075V7.0075C9.50012 6.4575 9.95012 6.0075 10.5001 6.0075C11.0501 6.0075 11.5001 6.4575 11.5001 7.0075V9.0075C11.5001 9.5575 11.0501 10.0075 10.5001 10.0075ZM11.5001 14.0075H9.50012V12.0075H11.5001V14.0075Z" fill="#EF4444"/>
</g>
<defs>
<clipPath id="clip0_1350_8854">
<rect width="21" height="17.0075" fill="white"/>
</clipPath>
</defs>
</svg>
